<svg width="40" height="40" viewBox="0 0 40 40" fill="none" xmlns="http://www.w3.org/2000/svg">
<g clip-path="url(#clip0_235_546)">
<path d="M25.7489 27.419C25.8927 28.1454 26.4061 28.6164 26.8956 28.4708C27.3851 28.3252 27.6652 27.6177 27.5213 26.8914C27.4677 26.6002 27.3417 26.3329 27.1536 26.1145L26.504 23.0482L24.9852 23.5518L25.7872 26.5214C25.7012 26.822 25.6884 27.1304 25.7506 27.419H25.7489Z" fill="#F8A8AB"/>
<path d="M22.3257 47.5808H24.1084V45.0361H22.3257V47.5808Z" fill="#F8A8AB"/>
<path d="M23.9109 49.0386C23.6061 49.066 22.0805 49.1877 22.0039 48.8356C21.9341 48.5127 22.0371 48.1753 22.0516 48.129C22.198 46.6609 22.2525 46.6446 22.2857 46.6352C22.3376 46.6198 22.4892 46.6926 22.7352 46.8519L22.7505 46.8622L22.7539 46.8802C22.7582 46.9033 22.8671 47.4421 23.3839 47.359C23.738 47.3025 23.853 47.2236 23.8896 47.1851C23.8598 47.1714 23.8223 47.1474 23.7959 47.1063C23.7576 47.0463 23.7508 46.9693 23.7764 46.8768C23.8428 46.6326 24.042 46.272 24.0505 46.2575L24.0735 46.2164L26.0996 47.592L27.3511 47.9517C27.4456 47.9791 27.5213 48.0468 27.5597 48.1376C27.6124 48.2643 27.5801 48.4117 27.4779 48.5042C27.2506 48.7097 26.7994 49.0618 26.3252 49.1054C26.1992 49.1174 26.0324 49.1217 25.8451 49.1217C25.0627 49.1217 23.9202 49.0403 23.9117 49.0386H23.9109Z" fill="#2F2E43"/>
<path d="M17.3871 47.5808H19.1698V45.0361H17.3871V47.5808Z" fill="#F8A8AB"/>
<path d="M18.9723 49.0386C18.6675 49.066 17.1419 49.1877 17.0653 48.8356C16.9955 48.5127 17.0985 48.1753 17.113 48.129C17.2594 46.6609 17.3139 46.6446 17.3471 46.6352C17.399 46.6198 17.5506 46.6926 17.7966 46.8519L17.8119 46.8622L17.8153 46.8802C17.8196 46.9033 17.9285 47.4421 18.4453 47.359C18.7995 47.3025 18.9144 47.2236 18.951 47.1851C18.9212 47.1714 18.8837 47.1474 18.8573 47.1063C18.819 47.0463 18.8122 46.9693 18.8378 46.8768C18.9042 46.6326 19.1034 46.272 19.1119 46.2575L19.1349 46.2164L21.161 47.592L22.4125 47.9517C22.507 47.9791 22.5827 48.0468 22.6211 48.1376C22.6738 48.2643 22.6415 48.4117 22.5393 48.5042C22.312 48.7097 21.8608 49.0618 21.3866 49.1054C21.2606 49.1174 21.0938 49.1217 20.9065 49.1217C20.1241 49.1217 18.9816 49.0403 18.9731 49.0386H18.9723Z" fill="#2F2E43"/>
<path d="M18.8318 9.56722L21.596 10.4811V6.47772H19.088L18.8318 9.56722Z" fill="#F8A8AB"/>
<path d="M21.2539 7.58611C22.7749 7.58611 24.008 6.34555 24.008 4.81524C24.008 3.28493 22.7749 2.04437 21.2539 2.04437C19.7329 2.04437 18.4999 3.28493 18.4999 4.81524C18.4999 6.34555 19.7329 7.58611 21.2539 7.58611Z" fill="#F8A8AB"/>
<path d="M20.5524 5.03193L20.9321 5.49531L21.6191 4.28589C21.6191 4.28589 22.496 4.33129 22.496 3.6769C22.496 3.02251 23.3005 3.00367 23.3005 3.00367C23.3005 3.00367 24.4387 1.00368 22.0805 1.53044C22.0805 1.53044 20.4451 0.403249 19.6312 1.36684C19.6312 1.36684 17.1369 2.63022 17.8511 4.83065L19.037 7.09873L19.306 6.58567C19.306 6.58567 19.1434 4.43065 20.5532 5.03107L20.5524 5.03193Z" fill="#2F2E43"/>
<path d="M28.6808 30.8717L23.4766 29.1886C22.8347 28.9813 22.1452 29.3282 21.9264 29.9706L19.575 36.8691C19.3349 37.5732 19.7589 38.3304 20.4817 38.4897L26.4631 39.8062C27.1203 39.9509 27.7724 39.5406 27.9308 38.8828L29.5049 32.3509C29.6573 31.7171 29.298 31.0713 28.6808 30.8717Z" fill="#E2E3E4"/>
<path d="M28.153 32.3269L27.8176 32.2669C28.0321 31.0404 28.3284 27.7702 27.1323 27.3693C26.5525 27.1749 25.9685 27.5149 25.3973 28.3809C24.9486 29.0618 24.6864 29.8155 24.6839 29.8233L24.3621 29.711C24.408 29.5783 25.502 26.4614 27.2395 27.0438C28.9567 27.6194 28.1862 32.1342 28.1522 32.326L28.153 32.3269Z" fill="#2F2E43"/>
<path d="M24.2071 22.7501H14.9047L17.1811 46.3637L19.8202 46.1924L19.9505 29.1869L21.6114 36.6498L22.0975 46.0639L24.5025 46.1924L24.7818 35.4832L24.2071 22.7501Z" fill="#2F2E43"/>
<path d="M18.6811 8.10345L21.8311 8.87433L24.5238 20.5822L24.2071 22.7501L16.3196 24.0931L14.9047 22.7501L18.6811 8.10345Z" fill="#6C63FF"/>
<path d="M18.6761 7.51758L17.5991 8.73299L15.4146 9.26061L11.6901 25.9218L18.8667 27.1449L20.8657 10.1762L18.6761 7.51758Z" fill="#2F2E43"/>
<path d="M21.8293 8.12482L21.2675 10.1394L23.8683 28.2053H25.21L24.591 10.5265L22.7692 9.07042L21.8293 8.12482Z" fill="#2F2E43"/>
<path d="M23.5107 10.303L24.5911 10.5265C24.5911 10.5265 25.0644 10.7013 25.2364 12.0546C25.4075 13.4079 25.4381 17.9526 25.4381 17.9526L27.2753 25.2845L25.1887 25.9766L24.2063 22.0314L23.5099 10.3021L23.5107 10.303Z" fill="#2F2E43"/>
<path d="M21.7085 9.36254L21.1857 10.327L22.2312 21.64L21.0112 22.7801L19.8781 21.7282L20.7064 10.3707L19.4993 9.36254L19.9215 9.05504L20.3574 9.58095L21.2292 9.40622L21.5774 8.87946L21.7085 9.36254Z" fill="#2F2E43"/>
<path d="M16.5741 24.5762C17.0125 25.1715 17.6766 25.3762 18.0571 25.0345C18.4376 24.6927 18.3908 23.933 17.9524 23.3368C17.7804 23.0961 17.5531 22.9094 17.2892 22.7929L15.3993 20.2996L14.2397 21.4079L16.2259 23.7479C16.2761 24.0572 16.3953 24.3407 16.5741 24.5754V24.5762Z" fill="#F8A8AB"/>
<path d="M16.2779 9.53385L15.4147 9.26062C15.4147 9.26062 14.2449 9.5527 13.8576 11.0225L11.9668 18.1831L15.1737 23.8464L16.8875 21.7531L15.2734 16.554L16.2788 9.53385H16.2779Z" fill="#2F2E43"/>
</g>
<defs>
<clipPath id="clip0_235_546">
<rect width="45.7707" height="48.2448" fill="white" transform="translate(0.689209 0.977966)"/>
</clipPath>
</defs>
</svg>
