<svg width="40" height="40" viewBox="0 0 40 40" fill="none" xmlns="http://www.w3.org/2000/svg">
<g clip-path="url(#clip0_248_888)">
<path d="M33.3869 21.8347C33.2548 21.8716 33.1163 21.8791 32.981 21.8568C32.8457 21.8344 32.7169 21.7826 32.6034 21.7051C32.4899 21.6276 32.3944 21.5261 32.3236 21.4077C32.2528 21.2894 32.2083 21.1569 32.1933 21.0195L27.6768 19.644L27.7469 18.2907L33.0994 19.9639C33.3307 19.9556 33.5569 20.0331 33.7353 20.1818C33.9137 20.3304 34.0318 20.5399 34.0672 20.7705C34.1026 21.0011 34.053 21.2368 33.9276 21.4329C33.8022 21.6291 33.6098 21.772 33.3869 21.8347Z" fill="#FFB6B6"/>
<path d="M18.1806 14.8537C17.7233 14.4689 18.393 12.5614 18.2124 12.0085C18.2016 11.9751 18.1914 11.9415 18.1816 11.9078C18.1612 11.8365 18.1658 11.7602 18.1946 11.6918L19.8921 10.8867C20.3344 11.0689 20.742 11.3273 21.0966 11.6502L23.719 14.6705L26.3243 17.0433L27.4674 17.5572L31.2555 19.2609L31.2162 19.3751L31.2159 19.3755L30.7995 20.5949L30.7995 20.5956L31.6325 21.1811L28.9055 20.7669L27.102 20.0167L25.3654 19.2945C22.8014 17.7384 18.5828 16.9319 18.1806 14.8537Z" fill="#6C63FF"/>
<path d="M19.4015 30.6049L19.3788 30.5763C19.3136 30.1531 19.4015 30.6049 19.4015 30.6049Z" fill="#2F2E41"/>
<path d="M20.5594 35.1702H14.2264C13.7344 33.9368 13.3929 33.0546 13.3929 33.0546C13.3929 33.0546 13.3099 33.9187 13.1916 35.1702H7.46616C7.41258 31.7692 7.33756 28.2773 7.31287 27.1683L18.3024 27.4151L19.3955 28.813C19.3992 28.8363 19.4029 28.8621 19.4076 28.8911C19.4519 29.1752 20.0469 32.2239 20.5594 35.1702Z" fill="#2F2E41"/>
<path d="M20.4634 11.2506L20.4623 11.2486C20.4274 11.1832 20.3712 11.1319 20.3032 11.1035C19.6079 10.5594 18.8465 10.3114 17.9921 10.4811C17.8522 10.054 17.7218 10.054 17.7218 10.054L15.8687 9.43685L15.6021 7.795L11.0361 7.63916L10.6212 9.68801C10.6212 9.68801 8.06905 10.1493 8.06905 10.483C8.06905 10.8166 8.49441 10.8166 8.06905 10.8166C7.6437 10.8166 7.52979 10.4353 7.16163 10.8166C7.13008 10.8486 7.09679 10.8788 7.0619 10.9071C7.05765 10.9109 7.05292 10.9143 7.04867 10.9181C6.63259 11.2481 6.3056 11.6785 6.09787 12.1695C5.89014 12.6605 5.80835 13.1963 5.86004 13.7276L6.64506 21.6022L7.48301 30.0049L18.9506 30.4863L19.7186 23.3361L20.4998 11.4393C20.5068 11.3741 20.4941 11.3083 20.4634 11.2506Z" fill="#6C63FF"/>
<path d="M1.63849 32.3676C1.70396 32.5337 1.77003 32.6554 1.83669 32.7156L24.0771 32.7633C24.1438 32.7031 24.2099 32.5814 24.2753 32.4153C25.0532 30.4419 23.5858 28.302 21.4799 28.2979L4.43506 28.2653C2.33204 28.2613 0.86166 30.3969 1.63849 32.3676Z" fill="white"/>
<path d="M24.0952 32.811L24.0771 32.8109L1.81863 32.7632L1.80522 32.7511C1.73589 32.6885 1.66701 32.5689 1.59462 32.3852C1.4105 31.9261 1.34259 31.4281 1.39701 30.9359C1.45143 30.4437 1.62647 29.973 1.90634 29.566C2.18578 29.1507 2.56182 28.8106 3.00161 28.5756C3.44141 28.3406 3.93159 28.2177 4.42933 28.2177H4.43519L21.48 28.2503C21.9796 28.2513 22.4713 28.3756 22.9122 28.6123C23.3532 28.849 23.7299 29.191 24.0096 29.6083C24.2891 30.0165 24.4638 30.4882 24.5178 30.9812C24.5718 31.4742 24.5036 31.9731 24.3193 32.4329C24.2469 32.6165 24.178 32.7362 24.1087 32.7988L24.0952 32.811ZM3.32269 32.6635L22.1807 32.6059C23.5119 32.6018 24.491 31.306 24.0966 30.024C24.0594 29.8958 24.0037 29.7737 23.9314 29.6618C23.6603 29.2573 23.2952 28.9259 22.8678 28.6965C22.4405 28.467 21.964 28.3466 21.4799 28.3457L4.435 28.313H4.42933C4.21289 28.3203 3.99946 28.3663 3.799 28.4489C2.698 28.869 1.96178 29.9251 1.90056 31.1105C1.89978 31.1256 1.899 31.1407 1.89823 31.1558C1.88862 31.3439 1.91583 31.532 1.97831 31.7094C2.04079 31.8869 2.13732 32.0502 2.26239 32.19C2.38745 32.3298 2.53861 32.4434 2.70721 32.5244C2.87582 32.6053 3.05858 32.6519 3.24506 32.6616C3.27092 32.663 3.29679 32.6636 3.32269 32.6635Z" fill="#E6E6E6"/>
<path d="M28.4024 15.5264C28.1588 14.4948 28.1995 13.4787 28.6166 12.4832C28.621 12.4216 28.6494 12.3643 28.6957 12.3238C28.7419 12.2834 28.8022 12.2631 28.8633 12.2674L31.1424 12.4304C31.2035 12.4349 31.2603 12.4636 31.3005 12.5102C31.3406 12.5568 31.3607 12.6176 31.3565 12.6792L31.1423 15.7224C31.1379 15.784 31.1095 15.8413 31.0632 15.8818C31.017 15.9223 30.9567 15.9426 30.8956 15.9383L28.6165 15.7752C28.5554 15.7707 28.4985 15.7421 28.4584 15.6954C28.4183 15.6488 28.3982 15.588 28.4024 15.5264Z" fill="#F2F2F2"/>
<path d="M28.6419 14.6197C28.447 14.1113 28.5716 13.4122 28.7796 12.6632C28.7837 12.6056 28.8104 12.5519 28.8537 12.514C28.897 12.4761 28.9535 12.4571 29.0107 12.4611L30.9694 12.6013C31.0266 12.6054 31.0798 12.6323 31.1174 12.676C31.155 12.7196 31.1738 12.7766 31.1699 12.8343L30.9793 15.5423C30.9752 15.6 30.9485 15.6537 30.9052 15.6915C30.8619 15.7294 30.8054 15.7485 30.7482 15.7444L29.5348 15.6576C29.28 15.6391 29.0429 15.5194 28.8755 15.3248C28.7081 15.1302 28.6241 14.8767 28.6419 14.6197Z" fill="white"/>
<path d="M29.998 14.7524C29.9382 14.742 29.8784 14.7316 29.8185 14.7213C29.8461 14.6557 29.862 14.5857 29.8655 14.5145C29.8939 14.1337 29.8967 13.7491 29.9118 13.3675C29.9114 13.3535 29.907 13.34 29.8992 13.3285C29.8913 13.317 29.8803 13.308 29.8675 13.3027C29.8548 13.2973 29.8407 13.2958 29.8271 13.2984C29.8135 13.3009 29.8009 13.3074 29.7908 13.3169C29.6405 13.4424 29.4903 13.5679 29.34 13.6934C29.2697 13.7522 29.3705 13.8528 29.4403 13.7945C29.5481 13.7045 29.656 13.6144 29.7638 13.5243C29.7539 13.7744 29.744 14.0244 29.7341 14.2745C29.7294 14.3945 29.7439 14.5403 29.6951 14.6531C29.6885 14.6683 29.6798 14.6826 29.6693 14.6954C29.603 14.6839 29.5368 14.6725 29.4706 14.661C29.4229 14.6527 29.3624 14.6928 29.3833 14.7489C29.4289 14.8709 29.5633 14.9094 29.6786 14.8624C29.6887 14.8578 29.6986 14.8525 29.708 14.8465L29.9603 14.8902C30.0496 14.9057 30.0879 14.7679 29.998 14.7524Z" fill="#6C63FF"/>
<path d="M41.6358 25.773C41.3922 24.7414 41.4329 23.7253 41.85 22.7298C41.8544 22.6682 41.8828 22.6109 41.9291 22.5705C41.9753 22.53 42.0356 22.5097 42.0967 22.514L44.3758 22.6771C44.4369 22.6815 44.4937 22.7102 44.5339 22.7568C44.574 22.8035 44.5941 22.8643 44.5899 22.9259L44.3757 25.9691C44.3713 26.0307 44.3429 26.088 44.2966 26.1284C44.2504 26.1689 44.1901 26.1892 44.129 26.1849L41.8499 26.0218C41.7888 26.0174 41.7319 25.9887 41.6918 25.9421C41.6517 25.8954 41.6316 25.8346 41.6358 25.773Z" fill="#F2F2F2"/>
<path d="M41.8753 24.8663C41.6804 24.358 41.805 23.6588 42.013 22.9099C42.0171 22.8522 42.0438 22.7985 42.0871 22.7606C42.1304 22.7227 42.1869 22.7037 42.2441 22.7077L44.2028 22.8479C44.26 22.8521 44.3132 22.8789 44.3508 22.9226C44.3884 22.9663 44.4072 23.0232 44.4033 23.0809L44.2127 25.7889C44.2086 25.8466 44.1819 25.9003 44.1386 25.9382C44.0953 25.9761 44.0388 25.9951 43.9816 25.9911L42.7682 25.9042C42.5134 25.8857 42.2763 25.766 42.1089 25.5715C41.9415 25.3769 41.8575 25.1233 41.8753 24.8663Z" fill="white"/>
<path d="M43.154 24.35C43.18 24.3378 43.2046 24.3227 43.2275 24.3051C43.2882 24.2546 43.3331 24.1874 43.3567 24.1117C43.3803 24.0359 43.3816 23.9549 43.3605 23.8785C43.2686 23.538 42.8647 23.5359 42.5859 23.5769C42.4959 23.5901 42.5342 23.7279 42.6236 23.7148C42.8115 23.6871 43.1065 23.6648 43.2075 23.8718C43.2305 23.9204 43.2387 23.9748 43.231 24.0282C43.2234 24.0815 43.2001 24.1313 43.1643 24.1713C43.1215 24.2146 43.0651 24.2417 43.0047 24.2478C42.9463 24.2222 42.8828 24.2102 42.8191 24.2129C42.7534 24.216 42.7168 24.3124 42.7833 24.3461C42.8422 24.3757 42.907 24.3911 42.9728 24.3912C43.0274 24.4177 43.0729 24.4599 43.1037 24.5125C43.1346 24.565 43.1493 24.6256 43.1461 24.6866C43.1399 24.7282 43.1255 24.7681 43.104 24.8041C43.0824 24.8401 43.054 24.8715 43.0204 24.8965C42.9868 24.9214 42.9487 24.9395 42.9082 24.9496C42.8677 24.9596 42.8256 24.9616 42.7843 24.9553L42.7826 24.955C42.6935 24.9369 42.6554 25.0747 42.7449 25.0929C42.865 25.1157 42.9892 25.0895 43.0901 25.02C43.191 24.9505 43.2604 24.8434 43.283 24.7223C43.2843 24.7157 43.2854 24.7091 43.2863 24.7025C43.2919 24.6375 43.2829 24.5721 43.26 24.5111C43.2371 24.45 43.2009 24.395 43.154 24.35Z" fill="#6C63FF"/>
<path d="M39.0836 9.4737C38.84 8.44209 38.8806 7.42601 39.2977 6.43051C39.3021 6.36892 39.3306 6.31161 39.3768 6.27115C39.4231 6.23069 39.4834 6.21038 39.5444 6.21468L41.8236 6.37776C41.8847 6.3822 41.9415 6.41089 41.9816 6.45753C42.0217 6.50417 42.0419 6.56496 42.0376 6.62656L41.8235 9.66975C41.8191 9.73134 41.7906 9.78865 41.7444 9.82912C41.6981 9.86958 41.6378 9.88989 41.5767 9.88559L39.2976 9.72251C39.2365 9.71807 39.1797 9.68938 39.1396 9.64274C39.0994 9.59609 39.0793 9.5353 39.0836 9.4737Z" fill="#F2F2F2"/>
<path d="M39.3231 8.567C39.1281 8.05865 39.2528 7.35948 39.4607 6.61056C39.4649 6.55288 39.4915 6.49921 39.5348 6.46131C39.5781 6.42342 39.6346 6.4044 39.6918 6.40843L41.6505 6.54858C41.7077 6.55274 41.761 6.5796 41.7985 6.62329C41.8361 6.66697 41.855 6.7239 41.851 6.7816L41.6604 9.48962C41.6563 9.5473 41.6297 9.60098 41.5864 9.63887C41.543 9.67677 41.4866 9.69579 41.4294 9.69176L40.216 9.60494C39.9612 9.58642 39.7241 9.46674 39.5567 9.27215C39.3893 9.07757 39.3053 8.82397 39.3231 8.567Z" fill="white"/>
<path d="M40.5277 7.20429C40.3269 7.13402 40.1036 7.29415 40.0808 7.50175C40.055 7.73706 40.306 7.92282 40.5233 7.85887C40.6107 7.83314 40.5735 7.69512 40.4856 7.72099C40.3263 7.76787 40.1564 7.59444 40.248 7.43939C40.2688 7.40196 40.3004 7.37181 40.3386 7.35296C40.3769 7.3341 40.4199 7.32743 40.4619 7.33383C40.4976 7.34381 40.5305 7.36209 40.558 7.3872C40.5854 7.41232 40.6067 7.44357 40.62 7.47846C40.6981 7.65605 40.6052 7.83635 40.4821 7.96543C40.4119 8.03905 40.3296 8.09626 40.2539 8.16337C40.2171 8.1914 40.1866 8.22689 40.1642 8.26755C40.1418 8.30822 40.1282 8.35316 40.1241 8.39947C40.1261 8.45155 40.1422 8.50209 40.1706 8.54563C40.199 8.58916 40.2387 8.62403 40.2854 8.64645C40.4063 8.70914 40.5438 8.68921 40.6724 8.66835C40.7622 8.65377 40.7241 8.51597 40.6347 8.53048C40.5222 8.54873 40.3538 8.57638 40.2825 8.45812C40.2215 8.35685 40.3472 8.26792 40.4158 8.21405C40.5879 8.07865 40.7621 7.9038 40.7879 7.6736C40.8091 7.48501 40.7141 7.26952 40.5277 7.20429Z" fill="#6C63FF"/>
<path d="M5.9406 21.1344L7.06354 21.6443C6.53562 22.0761 5.7317 22.6571 4.94432 22.9259L3.6933 22.0656C3.2273 20.2536 3.51276 18.3864 4.07282 16.8074C4.38311 15.9301 4.79459 15.0925 5.29879 14.312C5.24714 13.7808 5.32896 13.2449 5.53669 12.7539C5.74441 12.263 6.07137 11.8326 6.48742 11.5025C6.49214 11.4987 6.4964 11.4954 6.50065 11.4916C6.91505 11.8542 7.25355 12.2965 7.49636 12.7927C7.73916 13.2889 7.88139 13.8289 7.91472 14.3811L7.93977 14.7986L7.98987 15.6212L8.117 17.722L6.60935 20.0859L5.9406 21.1344Z" fill="#6C63FF"/>
<path d="M9.17127 30.1029C9.1844 30.1195 9.20108 30.1329 9.22007 30.1421C9.23906 30.1512 9.25987 30.1559 9.28092 30.1558H16.9534C16.9744 30.1558 16.9951 30.1511 17.014 30.142C17.033 30.1328 17.0496 30.1196 17.0629 30.1032C17.0761 30.0867 17.0855 30.0675 17.0904 30.047C17.0954 30.0264 17.0957 30.005 17.0914 29.9843L16.9723 29.4138C16.9674 29.3905 16.9567 29.3689 16.9414 29.3508C16.926 29.3328 16.9064 29.3188 16.8844 29.3104C16.8684 29.3041 16.8514 29.3008 16.8343 29.3008H9.39955C9.3824 29.3008 9.36541 29.3041 9.34945 29.3104C9.3274 29.3188 9.30781 29.3328 9.29246 29.3508C9.2771 29.3689 9.26648 29.3905 9.26154 29.4138L9.14244 29.9843C9.1382 30.005 9.13859 30.0264 9.14358 30.0469C9.14856 30.0674 9.15802 30.0866 9.17127 30.1029Z" fill="#2F2E41"/>
<path d="M6.23389 17.3323V26.2569C6.23398 26.3706 6.27882 26.4797 6.35857 26.5601C6.43832 26.6405 6.54646 26.6857 6.65924 26.6858H19.7744C19.8872 26.6857 19.9953 26.6405 20.075 26.5601C20.1548 26.4797 20.1996 26.3706 20.1997 26.2569V17.3323C20.1995 17.2187 20.1545 17.1098 20.0748 17.0295C19.9951 16.9492 19.8871 16.904 19.7744 16.9039H6.65924C6.54656 16.904 6.43852 16.9492 6.3588 17.0295C6.27907 17.1098 6.23416 17.2187 6.23389 17.3323Z" fill="#3F3D56"/>
<path d="M11.5759 24.9349V29.8227H14.9717V24.9349C14.9717 24.8997 14.9606 24.8655 14.9399 24.8372C14.9193 24.8088 14.8901 24.788 14.8568 24.7776C14.8411 24.7724 14.8247 24.7698 14.8082 24.77H11.7399C11.6965 24.7699 11.6548 24.7872 11.6241 24.8181C11.5933 24.849 11.576 24.8909 11.5759 24.9347V24.9349ZM12.9011 26.6144C12.902 26.518 12.9406 26.4259 13.0085 26.3581C13.0764 26.2903 13.1681 26.2522 13.2636 26.2522C13.3592 26.2522 13.4509 26.2903 13.5188 26.3581C13.5867 26.4259 13.6252 26.518 13.6261 26.6144V27.1815C13.6257 27.2781 13.5872 27.3706 13.5193 27.4388C13.4514 27.5069 13.3595 27.5452 13.2636 27.5452C13.1678 27.5452 13.0759 27.5069 13.008 27.4388C12.94 27.3706 12.9016 27.2781 12.9011 27.1815V26.6144Z" fill="#2F2E41"/>
<path d="M13.5578 7.45616C15.1898 7.45616 16.5129 6.12199 16.5129 4.47622C16.5129 2.83044 15.1898 1.49628 13.5578 1.49628C11.9257 1.49628 10.6027 2.83044 10.6027 4.47622C10.6027 6.12199 11.9257 7.45616 13.5578 7.45616Z" fill="#FFB6B6"/>
<path d="M17.096 3.9549C16.7774 4.05464 16.4703 4.11343 16.2631 3.8499C16.0559 3.58638 16.1101 3.28505 15.8019 3.15801C15.553 3.05513 15.2657 3.09922 15.0148 3.19476C14.97 3.21156 14.9263 3.23046 14.8836 3.24936C14.8596 3.22836 14.8357 3.20842 14.8096 3.18951C14.6138 3.04904 14.3719 2.98967 14.1339 3.02363C14.3079 3.10836 14.451 3.24609 14.5431 3.41734C14.4577 3.46039 14.366 3.49256 14.2839 3.54018C13.1553 4.19447 11.9003 4.45798 12.0027 3.3659C12.3442 4.27301 12.0787 4.59639 11.5779 5.42476L11.5581 5.47306C11.6081 5.25573 11.2567 5.24543 10.9532 5.31977C10.729 5.37468 10.8741 5.90168 11.1614 6.26469C10.519 5.28932 9.55688 3.80013 10.3889 3.05302C10.5116 2.94283 10.5886 2.78737 10.6107 2.38948C10.6237 2.15357 11.0219 2.09446 11.2322 2.19945C11.2627 1.84473 11.3856 1.50444 11.5886 1.2131C11.7915 0.92177 12.0673 0.689754 12.3879 0.540598C13.0313 0.251874 13.6857 0.696018 14.3849 0.782075C14.7728 0.829823 15.0669 0.987366 15.0824 1.48656C15.0927 1.819 15.5895 1.93802 15.9143 1.99682C16.1205 2.03357 16.3526 2.01152 16.5171 2.14276C16.7077 2.29499 16.7098 2.56272 16.7087 2.81995C16.5223 2.81458 16.3385 2.86539 16.1809 2.96588C16.3738 2.97077 16.5604 3.0369 16.7139 3.15487C16.7169 3.1567 16.7197 3.15881 16.7223 3.16116C16.7785 3.59373 16.7556 3.68508 17.096 3.9549Z" fill="#2F2E41"/>
<path d="M19.2273 18.4851C20.382 18.1232 21.6181 18.5145 22.7792 18.1805C23.0462 18.1069 23.2986 17.9873 23.5254 17.8271C23.7188 17.6792 23.9004 17.5163 24.0685 17.3397C24.4178 16.9914 24.7971 16.6256 25.3218 16.6296C26.0128 16.635 26.5433 17.1525 27.0039 17.6096C27.069 17.6742 27.1693 17.5731 27.1042 17.5085C26.6809 17.0885 26.2237 16.6455 25.6213 16.5201C25.351 16.4597 25.069 16.4833 24.8123 16.5879C24.5897 16.6899 24.3863 16.8301 24.2112 17.0023C24.0257 17.1739 23.8546 17.3607 23.6666 17.5295C23.4703 17.7096 23.2441 17.8536 22.9985 17.9548C22.4662 18.1685 21.8824 18.1943 21.3163 18.1881C20.6056 18.1802 19.878 18.1314 19.1896 18.3472C19.1027 18.3744 19.1398 18.5125 19.2273 18.4851Z" fill="#3F3D56"/>
<path d="M27.2572 16.646L27.6122 17.277L27.7839 17.5823C27.8144 17.6366 27.8458 17.6905 27.8755 17.7452C27.8938 17.7788 27.9336 17.8394 27.8956 17.8712C27.8621 17.8877 27.8245 17.8936 27.7877 17.8882C27.7251 17.8883 27.6625 17.8869 27.5999 17.8863L27.2479 17.8827L26.5204 17.8753C26.502 17.8759 26.4846 17.8837 26.4718 17.8971C26.459 17.9104 26.4519 17.9282 26.4519 17.9468C26.4519 17.9653 26.459 17.9831 26.4718 17.9965C26.4846 18.0098 26.502 18.0176 26.5204 18.0182C26.9427 18.0226 27.3653 18.0316 27.7877 18.0312C27.8614 18.0383 27.9351 18.018 27.9949 17.974C28.0242 17.9446 28.0436 17.9067 28.0504 17.8655C28.0571 17.8244 28.0509 17.7822 28.0325 17.7448C27.9909 17.6532 27.943 17.5646 27.8892 17.4796L27.7346 17.2049L27.3796 16.5739C27.3698 16.5582 27.3543 16.547 27.3365 16.5426C27.3186 16.5382 27.2997 16.5409 27.2838 16.5503C27.268 16.5597 27.2563 16.5749 27.2513 16.5927C27.2464 16.6106 27.2485 16.6297 27.2572 16.646Z" fill="#3F3D56"/>
<path d="M31.9488 18.1921H28.6863C28.6684 18.1922 28.6507 18.1887 28.6342 18.1819C28.6177 18.1751 28.6026 18.165 28.59 18.1523C28.5773 18.1396 28.5672 18.1245 28.5603 18.1079C28.5534 18.0913 28.5499 18.0735 28.5498 18.0555C28.5498 18.0375 28.5532 18.0196 28.56 18.0029C28.5668 17.9863 28.5768 17.9711 28.5894 17.9584C28.602 17.9456 28.617 17.9354 28.6334 17.9285C28.6499 17.9216 28.6676 17.918 28.6855 17.918C28.6858 17.918 28.686 17.918 28.6863 17.918H31.9488C31.9667 17.9179 31.9844 17.9214 32.0009 17.9282C32.0174 17.935 32.0325 17.9451 32.0452 17.9578C32.0578 17.9705 32.0679 17.9856 32.0748 18.0022C32.0817 18.0188 32.0853 18.0366 32.0853 18.0546C32.0854 18.0727 32.0819 18.0905 32.0751 18.1072C32.0683 18.1238 32.0583 18.139 32.0457 18.1517C32.0331 18.1645 32.0182 18.1747 32.0017 18.1816C31.9852 18.1885 31.9675 18.1921 31.9496 18.1921C31.9494 18.1921 31.9491 18.1921 31.9488 18.1921Z" fill="#E6E6E6"/>
<path d="M31.9488 20.4001H28.6863C28.6684 20.4001 28.6507 20.3966 28.6342 20.3898C28.6177 20.383 28.6027 20.3729 28.59 20.3602C28.5774 20.3475 28.5673 20.3324 28.5604 20.3158C28.5536 20.2992 28.55 20.2814 28.5499 20.2634C28.5499 20.2454 28.5533 20.2276 28.5601 20.2109C28.5669 20.1943 28.5769 20.1791 28.5895 20.1664C28.602 20.1536 28.617 20.1434 28.6335 20.1365C28.6499 20.1296 28.6676 20.126 28.6855 20.1259C28.6857 20.1259 28.686 20.1259 28.6863 20.1259H31.9488C31.9666 20.1259 31.9843 20.1294 32.0008 20.1362C32.0174 20.143 32.0324 20.1531 32.045 20.1658C32.0577 20.1785 32.0678 20.1935 32.0746 20.2102C32.0815 20.2268 32.0851 20.2446 32.0851 20.2626C32.0852 20.2806 32.0817 20.2984 32.0749 20.3151C32.0682 20.3317 32.0582 20.3469 32.0456 20.3596C32.033 20.3724 32.0181 20.3825 32.0016 20.3895C31.9851 20.3964 31.9675 20.4 31.9496 20.4001C31.9493 20.4001 31.9491 20.4001 31.9488 20.4001Z" fill="#E6E6E6"/>
<path d="M35.1515 19.2961H28.6863C28.6684 19.2961 28.6507 19.2927 28.6342 19.2858C28.6177 19.279 28.6026 19.269 28.59 19.2563C28.5773 19.2436 28.5672 19.2285 28.5603 19.2119C28.5534 19.1953 28.5499 19.1774 28.5498 19.1594C28.5498 19.1414 28.5532 19.1235 28.56 19.1069C28.5668 19.0902 28.5768 19.0751 28.5894 19.0623C28.602 19.0495 28.617 19.0394 28.6334 19.0325C28.6499 19.0255 28.6676 19.0219 28.6855 19.0219C28.6858 19.0219 28.686 19.0219 28.6863 19.0219H35.1515C35.1694 19.0218 35.1871 19.0253 35.2036 19.0321C35.2202 19.039 35.2352 19.049 35.2479 19.0617C35.2605 19.0744 35.2706 19.0895 35.2775 19.1061C35.2844 19.1227 35.288 19.1406 35.288 19.1586C35.2881 19.1766 35.2846 19.1944 35.2778 19.2111C35.271 19.2278 35.2611 19.2429 35.2484 19.2557C35.2358 19.2685 35.2209 19.2786 35.2044 19.2855C35.1879 19.2925 35.1702 19.296 35.1523 19.2961C35.1521 19.2961 35.1518 19.2961 35.1515 19.2961Z" fill="#E6E6E6"/>
<path d="M30.8229 16.8975C31.5407 15.9162 32.7665 15.4931 33.5058 14.5305C33.6776 14.3117 33.8108 14.0646 33.8994 13.8001C33.9683 13.5654 34.0189 13.3256 34.0507 13.083C34.1275 12.5937 34.2182 12.0724 34.6433 11.7622C35.2032 11.3538 35.9347 11.4539 36.5742 11.547C36.5925 11.5492 36.6109 11.5441 36.6255 11.5329C36.6401 11.5216 36.6499 11.5051 36.6526 11.4868C36.6554 11.4684 36.651 11.4497 36.6404 11.4346C36.6297 11.4195 36.6137 11.4091 36.5956 11.4057C36.0079 11.3201 35.3793 11.2363 34.8203 11.4951C34.567 11.6078 34.3537 11.7953 34.2083 12.0329C34.0888 12.2481 34.0074 12.4826 33.9675 12.7259C33.9188 12.9749 33.8906 13.2276 33.8383 13.476C33.786 13.7383 33.6883 13.9894 33.5498 14.2176C33.2465 14.7078 32.7913 15.0773 32.3315 15.4104C31.7544 15.8286 31.1395 16.2239 30.7116 16.8089C30.6576 16.8827 30.7686 16.9718 30.8229 16.8975Z" fill="#3F3D56"/>
<path d="M36.2121 10.6194L36.8688 10.9158L37.1865 11.0592C37.2429 11.0847 37.2999 11.1093 37.3559 11.1357C37.3904 11.1518 37.4581 11.1768 37.4461 11.2252C37.438 11.2582 37.3942 11.2848 37.3692 11.3034C37.3189 11.3409 37.2676 11.3771 37.2168 11.414L36.9311 11.6213L36.3405 12.0499C36.3261 12.0614 36.3167 12.0781 36.3142 12.0965C36.3118 12.1149 36.3165 12.1335 36.3274 12.1484C36.3383 12.1633 36.3545 12.1734 36.3726 12.1765C36.3907 12.1797 36.4093 12.1756 36.4245 12.1651C36.7673 11.9163 37.1131 11.6711 37.4532 11.4186C37.5167 11.3803 37.5642 11.3199 37.5866 11.2487C37.5929 11.2075 37.5862 11.1653 37.5675 11.1282C37.5488 11.091 37.519 11.0607 37.4822 11.0416C37.3948 10.9926 37.3042 10.9499 37.211 10.9136L36.925 10.7845L36.2684 10.4882C36.2512 10.4814 36.2322 10.4816 36.2152 10.4887C36.1982 10.4958 36.1846 10.5093 36.1773 10.5264C36.17 10.5434 36.1696 10.5626 36.1761 10.58C36.1826 10.5974 36.1955 10.6115 36.2121 10.6194Z" fill="#3F3D56"/>
<path d="M42.1101 11.3769H38.8476C38.8297 11.377 38.812 11.3735 38.7955 11.3667C38.7789 11.3599 38.7639 11.3498 38.7512 11.3371C38.7385 11.3245 38.7285 11.3094 38.7216 11.2927C38.7147 11.2761 38.7111 11.2583 38.7111 11.2403C38.711 11.2223 38.7145 11.2044 38.7213 11.1878C38.7281 11.1711 38.738 11.1559 38.7506 11.1432C38.7632 11.1304 38.7782 11.1203 38.7947 11.1133C38.8112 11.1064 38.8289 11.1028 38.8467 11.1028C38.847 11.1028 38.8473 11.1028 38.8476 11.1028H42.1101C42.1279 11.1027 42.1456 11.1062 42.1622 11.113C42.1787 11.1198 42.1937 11.1299 42.2064 11.1426C42.2191 11.1553 42.2292 11.1704 42.2361 11.187C42.2429 11.2036 42.2465 11.2214 42.2466 11.2394C42.2466 11.2575 42.2432 11.2753 42.2364 11.292C42.2296 11.3086 42.2196 11.3238 42.207 11.3366C42.1944 11.3493 42.1794 11.3595 42.1629 11.3664C42.1464 11.3733 42.1288 11.3769 42.1109 11.3769C42.1106 11.3769 42.1103 11.3769 42.1101 11.3769Z" fill="#6C63FF"/>
<path d="M33.3278 21.2255C34.0456 22.2068 35.2714 22.6299 36.0107 23.5925C36.1825 23.8113 36.3157 24.0584 36.4043 24.3229C36.4732 24.5576 36.5238 24.7974 36.5556 25.04C36.6323 25.5293 36.7231 26.0506 37.1482 26.3607C37.708 26.7692 38.4395 26.6691 39.0791 26.576C39.0974 26.5738 39.1158 26.5789 39.1304 26.5901C39.145 26.6013 39.1548 26.6179 39.1575 26.6362C39.1603 26.6546 39.1559 26.6733 39.1453 26.6884C39.1346 26.7035 39.1186 26.7139 39.1005 26.7173C38.5128 26.8029 37.8841 26.8867 37.3252 26.6279C37.0719 26.5152 36.8586 26.3276 36.7132 26.0901C36.5937 25.8749 36.5122 25.6404 36.4724 25.3971C36.4237 25.1481 36.3955 24.8954 36.3432 24.647C36.2908 24.3847 36.1932 24.1336 36.0547 23.9053C35.7514 23.4152 35.2962 23.0457 34.8364 22.7126C34.2593 22.2944 33.6444 21.8991 33.2165 21.3141C33.1625 21.2403 33.2734 21.1512 33.3278 21.2255Z" fill="#3F3D56"/>
<path d="M38.7171 27.5036L39.3737 27.2072L39.6915 27.0638C39.7479 27.0383 39.8048 27.0137 39.8609 26.9873C39.8954 26.9712 39.9631 26.9462 39.9511 26.8978C39.943 26.8648 39.8992 26.8382 39.8742 26.8196C39.8238 26.7821 39.7726 26.7459 39.7218 26.709L39.436 26.5017L38.8455 26.0731C38.8311 26.0616 38.8217 26.0449 38.8192 26.0265C38.8168 26.0082 38.8215 25.9895 38.8324 25.9746C38.8433 25.9597 38.8595 25.9496 38.8776 25.9465C38.8957 25.9433 38.9143 25.9474 38.9295 25.9579C39.2723 26.2067 39.6181 26.4519 39.9582 26.7044C40.0217 26.7427 40.0692 26.8031 40.0916 26.8743C40.0979 26.9155 40.0912 26.9577 40.0725 26.9948C40.0538 27.032 40.0239 27.0623 39.9872 27.0814C39.8998 27.1304 39.8092 27.1731 39.7159 27.2094L39.43 27.3385L38.7734 27.6348C38.7562 27.6416 38.7372 27.6414 38.7202 27.6343C38.7032 27.6271 38.6896 27.6136 38.6823 27.5966C38.675 27.5796 38.6746 27.5604 38.6811 27.543C38.6876 27.5257 38.7005 27.5115 38.7171 27.5036Z" fill="#3F3D56"/>
<path d="M44.615 27.152H41.3525C41.3164 27.1521 41.2818 27.1378 41.2563 27.1122C41.2307 27.0866 41.2162 27.0518 41.2161 27.0155C41.2159 26.9792 41.2301 26.9443 41.2554 26.9184C41.2808 26.8926 41.3152 26.878 41.3513 26.8778C41.3517 26.8778 41.3521 26.8778 41.3525 26.8778H44.615C44.651 26.8777 44.6856 26.892 44.7112 26.9176C44.7368 26.9432 44.7512 26.978 44.7514 27.0143C44.7515 27.0506 44.7374 27.0855 44.712 27.1113C44.6867 27.1372 44.6522 27.1518 44.6162 27.152C44.6158 27.152 44.6154 27.152 44.615 27.152Z" fill="#6C63FF"/>
<path d="M7.42327 21.8235C7.3615 21.9469 7.27389 22.0554 7.16648 22.1413C7.05907 22.2272 6.93444 22.2885 6.8012 22.3211C6.66796 22.3537 6.52929 22.3567 6.3948 22.3299C6.2603 22.3031 6.13318 22.2472 6.02222 22.166L2.62433 23.7965L2.39661 22.8362L5.85701 20.7798C6.00645 20.6017 6.21551 20.485 6.44457 20.4519C6.67364 20.4187 6.90679 20.4715 7.09985 20.6001C7.29291 20.7288 7.43247 20.9244 7.49208 21.1499C7.55169 21.3753 7.52721 21.615 7.42327 21.8235Z" fill="#FFB6B6"/>
<path d="M6.11386 16.8707L3.72289 21.7972L4.73335 21.3354L5.4366 21.0137L5.78918 22.3644C5.78918 22.3644 5.5557 22.5931 5.18754 22.8938C4.65962 23.3256 3.8557 23.9066 3.06832 24.1754C2.45203 24.386 1.8466 24.4056 1.39195 24.0129C0.528946 23.2675 1.37257 20.3074 2.18783 18.0536C2.73371 16.5443 3.26635 15.3523 3.26635 15.3523C3.26635 13.7605 6.32979 11.4716 6.89834 11.1585C7.22303 10.9803 7.31281 11.2399 7.31281 11.2399L5.53113 13.8701L6.06377 16.0481L6.21453 16.6634L6.11386 16.8707Z" fill="#6C63FF"/>
</g>
<defs>
<clipPath id="clip0_248_888">
<rect width="44" height="38" fill="white" transform="translate(0.751465 0.444275)"/>
</clipPath>
</defs>
</svg>
