<svg width="16" height="20" viewBox="0 0 16 20" fill="none" xmlns="http://www.w3.org/2000/svg">
<path d="M12 11.1H11.5C10.8 9.8 10.3 8.1 9.8 6.4L10.7 7.3C13.4 9.4 15.8 9 15.8 9C15.8 9 16.5 5.2 13.8 3.2C11.5 1.4 9.4 1.4 8.8 1.5C8.7 0.9 8.7 0.4 8.6 0L7.2 0.1C7.2 3.3 4.5 9.2 3.6 11.1C1.6 11.3 0 13 0 15.1C0 17.3 1.8 19.1 4 19.1C5.1 19.1 6 18.7 6.7 18C6.3 17.1 6 16.1 6 15.1C6 14.1 6.3 13.1 6.7 12.2C6.3 11.8 5.7 11.5 5.2 11.3C5.9 9.8 7.1 7.1 7.9 4.5C8.3 6.8 9.1 9.5 10.1 11.6C8.9 12.3 8 13.6 8 15.1C8 17.3 9.8 19.1 12 19.1C14.2 19.1 16 17.3 16 15.1C16 12.9 14.2 11.1 12 11.1ZM4 13.6C3.2 13.6 2.5 14.3 2.5 15.1H1.5C1.5 13.7 2.6 12.6 4 12.6V13.6ZM12 13.6C11.2 13.6 10.5 14.3 10.5 15.1H9.5C9.5 13.7 10.6 12.6 12 12.6V13.6Z" fill="#4A994D" style="fill:#4A994D;fill:color(display-p3 0.2902 0.6000 0.3026);fill-opacity:1;"/>
</svg>
